<svg width="16" height="16" viewBox="0 0 16 16" fill="#808080" xmlns="http://www.w3.org/2000/svg">
  <path fill-rule="evenodd" clip-rule="evenodd" d="M8 0C3.58172 0 0 3.58172 0 8C0 12.4183 3.58172 16 8 16C12.4183 16 16 12.4183 16 8C16 3.58172 12.4183 0 8 0ZM2.249 10.649C2.419 10.492 2.597 10.174 2.645 9.944L2.701 9.664C2.73954 9.40337 2.66536 9.13865 2.497 8.936L2.214 8.633C2.054 8.463 2.086 8.225 2.284 8.106L2.79 7.798C3.01273 7.6782 3.2818 7.68313 3.5 7.811L4.005 8.145C4.22532 8.27327 4.49477 8.2845 4.725 8.175L5.343 7.84C5.546 7.73 5.754 7.451 5.805 7.221L5.905 6.774C5.957 6.544 5.921 6.182 5.825 5.967L5.471 5.177C5.37539 4.96335 5.46598 4.71234 5.676 4.609L6.513 4.212C6.74213 4.08515 6.90675 3.86711 6.966 3.612L7.09 2.921C7.12355 2.65281 7.06464 2.3812 6.923 2.151L6.447 1.464C6.3837 1.36563 6.34653 1.25274 6.339 1.136C6.76745 1.04566 7.20413 1.00008 7.642 1C10.807 1 13.446 3.347 14 6.433C13.8815 6.41364 13.7608 6.41263 13.642 6.43L12.184 6.694C11.9295 6.75664 11.7128 6.92265 11.586 7.152L11.289 7.764C11.1815 8.0161 11.1482 8.29363 11.193 8.564L11.548 10.207C11.5951 10.4413 11.4662 10.6754 11.243 10.761L10.425 11.041C10.207 11.116 9.904 11.321 9.751 11.497L9.232 12.097C9.0509 12.2848 8.79984 12.3888 8.539 12.384L7.627 12.312C7.398 12.293 7.265 12.094 7.331 11.868L7.494 11.312C7.55473 11.072 7.46228 10.8192 7.261 10.675L6.895 10.44C6.69421 10.3164 6.43233 10.3663 6.291 10.555L5.181 12.075C5.0434 12.2647 5.07954 12.5292 5.263 12.675L5.669 12.987C5.85999 13.152 5.94392 13.4091 5.887 13.655L5.789 14C4.16842 13.4904 2.80961 12.3705 2 10.877L2.249 10.649Z" fill="#A9A9A9"/>
</svg>
